<?xml version="1.0" encoding="UTF-8" standalone="no"?>
<!DOCTYPE svg PUBLIC "-//W3C//DTD SVG 1.1//EN"
 "http://www.w3.org/Graphics/SVG/1.1/DTD/svg11.dtd">
<!-- Generated by graphviz version 2.40.1 (20161225.0304)
 -->
<!-- Title: Rs Pages: 1 -->
<svg width="1549pt" height="566pt"
 viewBox="0.00 0.00 1549.00 566.00" xmlns="http://www.w3.org/2000/svg" xmlns:xlink="http://www.w3.org/1999/xlink">
<g id="graph0" class="graph" transform="scale(1 1) rotate(0) translate(4 562)">
<title>Rs</title>
<polygon fill="#ffffff" stroke="transparent" points="-4,4 -4,-562 1545,-562 1545,4 -4,4"/>
<g id="clust1" class="cluster">
<title>cluster_RealSenseService</title>
<polygon fill="none" stroke="#000000" stroke-dasharray="5,2" points="8,-329.5 8,-406.5 221,-406.5 221,-329.5 8,-329.5"/>
<text text-anchor="middle" x="114.5" y="-391.3" font-family="Times,serif" font-size="14.00" fill="#000000">RealSenseService service</text>
</g>
<!-- ThriftPointList -->
<g id="node1" class="node">
<title>ThriftPointList</title>
<polygon fill="#f0ffff" stroke="#000000" points="873.5,-232.5 873.5,-268.5 1095.5,-268.5 1095.5,-232.5 873.5,-232.5"/>
<text text-anchor="middle" x="984.5" y="-246.8" font-family="Times,serif" font-size="14.00" fill="#000000">ThriftPointList :: list&lt;ThriftPoint3D&gt;</text>
</g>
<!-- ThriftPoint3D -->
<g id="node8" class="node">
<title>ThriftPoint3D</title>
<polygon fill="#f5f5dc" stroke="#000000" points="1203,-222.5 1203,-314.5 1330,-314.5 1330,-222.5 1203,-222.5"/>
<text text-anchor="middle" x="1266.5" y="-299.3" font-family="Times,serif" font-size="14.00" fill="#000000">struct ThriftPoint3D</text>
<polyline fill="none" stroke="#000000" points="1203,-291.5 1330,-291.5 "/>
<text text-anchor="middle" x="1266.5" y="-276.3" font-family="Times,serif" font-size="14.00" fill="#000000">x :: double</text>
<polyline fill="none" stroke="#000000" points="1203,-268.5 1330,-268.5 "/>
<text text-anchor="middle" x="1266.5" y="-253.3" font-family="Times,serif" font-size="14.00" fill="#000000">y :: double</text>
<polyline fill="none" stroke="#000000" points="1203,-245.5 1330,-245.5 "/>
<text text-anchor="middle" x="1266.5" y="-230.3" font-family="Times,serif" font-size="14.00" fill="#000000">z :: double</text>
</g>
<!-- ThriftPointList&#45;&gt;ThriftPoint3D -->
<g id="edge1" class="edge">
<title>ThriftPointList&#45;&gt;ThriftPoint3D</title>
<path fill="none" stroke="#000000" d="M1095.5491,-257.5882C1129.9344,-259.783 1166.8111,-262.1369 1197.4797,-264.0944"/>
<polygon fill="#000000" stroke="#000000" points="1197.637,-265.858 1202.7383,-264.4301 1197.86,-262.3651 1197.637,-265.858"/>
</g>
<!-- ThriftLandmark2DList -->
<g id="node2" class="node">
<title>ThriftLandmark2DList</title>
<polygon fill="#f0ffff" stroke="#000000" points="512,-410.5 512,-446.5 806,-446.5 806,-410.5 512,-410.5"/>
<text text-anchor="middle" x="659" y="-424.8" font-family="Times,serif" font-size="14.00" fill="#000000">ThriftLandmark2DList :: list&lt;ThriftLandmark2D&gt;</text>
</g>
<!-- ThriftLandmark2D -->
<g id="node11" class="node">
<title>ThriftLandmark2D</title>
<polygon fill="#f5f5dc" stroke="#000000" points="907,-458.5 907,-550.5 1062,-550.5 1062,-458.5 907,-458.5"/>
<text text-anchor="middle" x="984.5" y="-535.3" font-family="Times,serif" font-size="14.00" fill="#000000">struct ThriftLandmark2D</text>
<polyline fill="none" stroke="#000000" points="907,-527.5 1062,-527.5 "/>
<text text-anchor="middle" x="984.5" y="-512.3" font-family="Times,serif" font-size="14.00" fill="#000000">name :: string</text>
<polyline fill="none" stroke="#000000" points="907,-504.5 1062,-504.5 "/>
<text text-anchor="middle" x="984.5" y="-489.3" font-family="Times,serif" font-size="14.00" fill="#000000">pixels :: ThriftPixel</text>
<polyline fill="none" stroke="#000000" points="907,-481.5 1062,-481.5 "/>
<text text-anchor="middle" x="984.5" y="-466.3" font-family="Times,serif" font-size="14.00" fill="#000000">uncertainty :: double</text>
</g>
<!-- ThriftLandmark2DList&#45;&gt;ThriftLandmark2D -->
<g id="edge2" class="edge">
<title>ThriftLandmark2DList&#45;&gt;ThriftLandmark2D</title>
<path fill="none" stroke="#000000" d="M759.2377,-446.5575C774.9293,-449.6825 790.9333,-453.0444 806,-456.5 837.3419,-463.6885 871.4959,-472.6035 901.4587,-480.7922"/>
<polygon fill="#000000" stroke="#000000" points="901.3307,-482.5716 906.6154,-482.2056 902.2559,-479.1961 901.3307,-482.5716"/>
</g>
<!-- ThriftLandmarkList -->
<g id="node3" class="node">
<title>ThriftLandmarkList</title>
<polygon fill="#f0ffff" stroke="#000000" points="528.5,-355.5 528.5,-391.5 789.5,-391.5 789.5,-355.5 528.5,-355.5"/>
<text text-anchor="middle" x="659" y="-369.8" font-family="Times,serif" font-size="14.00" fill="#000000">ThriftLandmarkList :: list&lt;ThriftLandmark&gt;</text>
</g>
<!-- ThriftLandmark -->
<g id="node12" class="node">
<title>ThriftLandmark</title>
<polygon fill="#f5f5dc" stroke="#000000" points="860,-327.5 860,-419.5 1109,-419.5 1109,-327.5 860,-327.5"/>
<text text-anchor="middle" x="984.5" y="-404.3" font-family="Times,serif" font-size="14.00" fill="#000000">struct ThriftLandmark</text>
<polyline fill="none" stroke="#000000" points="860,-396.5 1109,-396.5 "/>
<text text-anchor="middle" x="984.5" y="-381.3" font-family="Times,serif" font-size="14.00" fill="#000000">name :: string</text>
<polyline fill="none" stroke="#000000" points="860,-373.5 1109,-373.5 "/>
<text text-anchor="middle" x="984.5" y="-358.3" font-family="Times,serif" font-size="14.00" fill="#000000">point :: ThriftPoint3D</text>
<polyline fill="none" stroke="#000000" points="860,-350.5 1109,-350.5 "/>
<text text-anchor="middle" x="984.5" y="-335.3" font-family="Times,serif" font-size="14.00" fill="#000000">uncertainty :: ThriftUncertaintyCovariance</text>
</g>
<!-- ThriftLandmarkList&#45;&gt;ThriftLandmark -->
<g id="edge3" class="edge">
<title>ThriftLandmarkList&#45;&gt;ThriftLandmark</title>
<path fill="none" stroke="#000000" d="M789.5178,-373.5C810.9679,-373.5 833.1962,-373.5 854.6305,-373.5"/>
<polygon fill="#000000" stroke="#000000" points="854.7695,-375.2501 859.7694,-373.5 854.7694,-371.7501 854.7695,-375.2501"/>
</g>
<!-- ThriftVertexColorList -->
<g id="node4" class="node">
<title>ThriftVertexColorList</title>
<polygon fill="#f0ffff" stroke="#000000" points="861,-149.5 861,-185.5 1108,-185.5 1108,-149.5 861,-149.5"/>
<text text-anchor="middle" x="984.5" y="-163.8" font-family="Times,serif" font-size="14.00" fill="#000000">ThriftVertexColorList :: list&lt;ThriftColor&gt;</text>
</g>
<!-- ThriftColor -->
<g id="node14" class="node">
<title>ThriftColor</title>
<polygon fill="#f5f5dc" stroke="#000000" points="1210,-111.5 1210,-203.5 1323,-203.5 1323,-111.5 1210,-111.5"/>
<text text-anchor="middle" x="1266.5" y="-188.3" font-family="Times,serif" font-size="14.00" fill="#000000">struct ThriftColor</text>
<polyline fill="none" stroke="#000000" points="1210,-180.5 1323,-180.5 "/>
<text text-anchor="middle" x="1266.5" y="-165.3" font-family="Times,serif" font-size="14.00" fill="#000000">r :: i16</text>
<polyline fill="none" stroke="#000000" points="1210,-157.5 1323,-157.5 "/>
<text text-anchor="middle" x="1266.5" y="-142.3" font-family="Times,serif" font-size="14.00" fill="#000000">g :: i16</text>
<polyline fill="none" stroke="#000000" points="1210,-134.5 1323,-134.5 "/>
<text text-anchor="middle" x="1266.5" y="-119.3" font-family="Times,serif" font-size="14.00" fill="#000000">b :: i16</text>
</g>
<!-- ThriftVertexColorList&#45;&gt;ThriftColor -->
<g id="edge4" class="edge">
<title>ThriftVertexColorList&#45;&gt;ThriftColor</title>
<path fill="none" stroke="#000000" d="M1108.1893,-163.1139C1141.486,-161.9331 1176.0903,-160.706 1204.423,-159.7013"/>
<polygon fill="#000000" stroke="#000000" points="1204.7038,-161.4425 1209.6386,-159.5164 1204.5797,-157.9447 1204.7038,-161.4425"/>
</g>
<!-- ThriftTriangleCellList -->
<g id="node5" class="node">
<title>ThriftTriangleCellList</title>
<polygon fill="#f0ffff" stroke="#000000" points="842,-66.5 842,-102.5 1127,-102.5 1127,-66.5 842,-66.5"/>
<text text-anchor="middle" x="984.5" y="-80.8" font-family="Times,serif" font-size="14.00" fill="#000000">ThriftTriangleCellList :: list&lt;ThriftTriangleCell&gt;</text>
</g>
<!-- ThriftTriangleCell -->
<g id="node13" class="node">
<title>ThriftTriangleCell</title>
<polygon fill="#f5f5dc" stroke="#000000" points="1191.5,-.5 1191.5,-92.5 1341.5,-92.5 1341.5,-.5 1191.5,-.5"/>
<text text-anchor="middle" x="1266.5" y="-77.3" font-family="Times,serif" font-size="14.00" fill="#000000">struct ThriftTriangleCell</text>
<polyline fill="none" stroke="#000000" points="1191.5,-69.5 1341.5,-69.5 "/>
<text text-anchor="middle" x="1266.5" y="-54.3" font-family="Times,serif" font-size="14.00" fill="#000000">id1 :: i32</text>
<polyline fill="none" stroke="#000000" points="1191.5,-46.5 1341.5,-46.5 "/>
<text text-anchor="middle" x="1266.5" y="-31.3" font-family="Times,serif" font-size="14.00" fill="#000000">id2 :: i32</text>
<polyline fill="none" stroke="#000000" points="1191.5,-23.5 1341.5,-23.5 "/>
<text text-anchor="middle" x="1266.5" y="-8.3" font-family="Times,serif" font-size="14.00" fill="#000000">id3 :: i32</text>
</g>
<!-- ThriftTriangleCellList&#45;&gt;ThriftTriangleCell -->
<g id="edge5" class="edge">
<title>ThriftTriangleCellList&#45;&gt;ThriftTriangleCell</title>
<path fill="none" stroke="#000000" d="M1118.4801,-66.4459C1141.6352,-63.3257 1165.0434,-60.1715 1186.1986,-57.3208"/>
<polygon fill="#000000" stroke="#000000" points="1186.5203,-59.0433 1191.2418,-56.6412 1186.0528,-55.5747 1186.5203,-59.0433"/>
</g>
<!-- ThriftImage -->
<g id="node6" class="node">
<title>ThriftImage</title>
<polygon fill="#f5f5dc" stroke="#000000" points="601,-465.5 601,-557.5 717,-557.5 717,-465.5 601,-465.5"/>
<text text-anchor="middle" x="659" y="-542.3" font-family="Times,serif" font-size="14.00" fill="#000000">struct ThriftImage</text>
<polyline fill="none" stroke="#000000" points="601,-534.5 717,-534.5 "/>
<text text-anchor="middle" x="659" y="-519.3" font-family="Times,serif" font-size="14.00" fill="#000000">data :: string</text>
<polyline fill="none" stroke="#000000" points="601,-511.5 717,-511.5 "/>
<text text-anchor="middle" x="659" y="-496.3" font-family="Times,serif" font-size="14.00" fill="#000000">width :: i32</text>
<polyline fill="none" stroke="#000000" points="601,-488.5 717,-488.5 "/>
<text text-anchor="middle" x="659" y="-473.3" font-family="Times,serif" font-size="14.00" fill="#000000">height :: i32</text>
</g>
<!-- ThriftPixel -->
<g id="node7" class="node">
<title>ThriftPixel</title>
<polygon fill="#f5f5dc" stroke="#000000" points="1211.5,-468 1211.5,-537 1321.5,-537 1321.5,-468 1211.5,-468"/>
<text text-anchor="middle" x="1266.5" y="-521.8" font-family="Times,serif" font-size="14.00" fill="#000000">struct ThriftPixel</text>
<polyline fill="none" stroke="#000000" points="1211.5,-514 1321.5,-514 "/>
<text text-anchor="middle" x="1266.5" y="-498.8" font-family="Times,serif" font-size="14.00" fill="#000000">width :: i32</text>
<polyline fill="none" stroke="#000000" points="1211.5,-491 1321.5,-491 "/>
<text text-anchor="middle" x="1266.5" y="-475.8" font-family="Times,serif" font-size="14.00" fill="#000000">height :: i32</text>
</g>
<!-- ThriftVector3D -->
<g id="node9" class="node">
<title>ThriftVector3D</title>
<polygon fill="#f5f5dc" stroke="#000000" points="1406,-333.5 1406,-425.5 1541,-425.5 1541,-333.5 1406,-333.5"/>
<text text-anchor="middle" x="1473.5" y="-410.3" font-family="Times,serif" font-size="14.00" fill="#000000">struct ThriftVector3D</text>
<polyline fill="none" stroke="#000000" points="1406,-402.5 1541,-402.5 "/>
<text text-anchor="middle" x="1473.5" y="-387.3" font-family="Times,serif" font-size="14.00" fill="#000000">x :: double</text>
<polyline fill="none" stroke="#000000" points="1406,-379.5 1541,-379.5 "/>
<text text-anchor="middle" x="1473.5" y="-364.3" font-family="Times,serif" font-size="14.00" fill="#000000">y :: double</text>
<polyline fill="none" stroke="#000000" points="1406,-356.5 1541,-356.5 "/>
<text text-anchor="middle" x="1473.5" y="-341.3" font-family="Times,serif" font-size="14.00" fill="#000000">z :: double</text>
</g>
<!-- ThriftUncertaintyCovariance -->
<g id="node10" class="node">
<title>ThriftUncertaintyCovariance</title>
<polygon fill="#f5f5dc" stroke="#000000" points="1163,-334 1163,-449 1370,-449 1370,-334 1163,-334"/>
<text text-anchor="middle" x="1266.5" y="-433.8" font-family="Times,serif" font-size="14.00" fill="#000000">struct ThriftUncertaintyCovariance</text>
<polyline fill="none" stroke="#000000" points="1163,-426 1370,-426 "/>
<text text-anchor="middle" x="1266.5" y="-410.8" font-family="Times,serif" font-size="14.00" fill="#000000">variances :: ThriftVector3D</text>
<polyline fill="none" stroke="#000000" points="1163,-403 1370,-403 "/>
<text text-anchor="middle" x="1266.5" y="-387.8" font-family="Times,serif" font-size="14.00" fill="#000000">principalAxis1 :: ThriftVector3D</text>
<polyline fill="none" stroke="#000000" points="1163,-380 1370,-380 "/>
<text text-anchor="middle" x="1266.5" y="-364.8" font-family="Times,serif" font-size="14.00" fill="#000000">principalAxis2 :: ThriftVector3D</text>
<polyline fill="none" stroke="#000000" points="1163,-357 1370,-357 "/>
<text text-anchor="middle" x="1266.5" y="-341.8" font-family="Times,serif" font-size="14.00" fill="#000000">principalAxis3 :: ThriftVector3D</text>
</g>
<!-- ThriftUncertaintyCovariance&#45;&gt;ThriftVector3D -->
<g id="edge6" class="edge">
<title>ThriftUncertaintyCovariance:field_variances&#45;&gt;ThriftVector3D</title>
<path fill="none" stroke="#000000" d="M1370,-414.5C1380.1881,-414.5 1390.6571,-412.9593 1400.8407,-410.5244"/>
<polygon fill="#000000" stroke="#000000" points="1401.3997,-412.1881 1405.8145,-409.2601 1400.5374,-408.7959 1401.3997,-412.1881"/>
</g>
<!-- ThriftUncertaintyCovariance&#45;&gt;ThriftVector3D -->
<g id="edge7" class="edge">
<title>ThriftUncertaintyCovariance:field_principalAxis1&#45;&gt;ThriftVector3D</title>
<path fill="none" stroke="#000000" d="M1370,-391.5C1380.0267,-391.5 1390.5637,-390.9374 1400.9199,-390.0559"/>
<polygon fill="#000000" stroke="#000000" points="1401.1639,-391.7911 1405.9863,-389.5986 1400.8492,-388.3052 1401.1639,-391.7911"/>
</g>
<!-- ThriftUncertaintyCovariance&#45;&gt;ThriftVector3D -->
<g id="edge8" class="edge">
<title>ThriftUncertaintyCovariance:field_principalAxis2&#45;&gt;ThriftVector3D</title>
<path fill="none" stroke="#000000" d="M1370,-368.5C1380.0161,-368.5 1390.5471,-369.0157 1400.9004,-369.8238"/>
<polygon fill="#000000" stroke="#000000" points="1400.8383,-371.5745 1405.9656,-370.243 1401.127,-368.0865 1400.8383,-371.5745"/>
</g>
<!-- ThriftUncertaintyCovariance&#45;&gt;ThriftVector3D -->
<g id="edge9" class="edge">
<title>ThriftUncertaintyCovariance:field_principalAxis3&#45;&gt;ThriftVector3D</title>
<path fill="none" stroke="#000000" d="M1370,-345.5C1380.1586,-345.5 1390.6105,-346.9967 1400.7854,-349.362"/>
<polygon fill="#000000" stroke="#000000" points="1400.4818,-351.0895 1405.7557,-350.5901 1401.3215,-347.6917 1400.4818,-351.0895"/>
</g>
<!-- ThriftLandmark2D&#45;&gt;ThriftPixel -->
<g id="edge10" class="edge">
<title>ThriftLandmark2D:field_pixels&#45;&gt;ThriftPixel</title>
<path fill="none" stroke="#000000" d="M1062.5,-492.5C1110.6885,-492.5 1165.2032,-495.3181 1205.7478,-497.9622"/>
<polygon fill="#000000" stroke="#000000" points="1206.0181,-499.7338 1211.1226,-498.317 1206.2487,-496.2414 1206.0181,-499.7338"/>
</g>
<!-- ThriftLandmark&#45;&gt;ThriftPoint3D -->
<g id="edge11" class="edge">
<title>ThriftLandmark:field_point&#45;&gt;ThriftPoint3D</title>
<path fill="none" stroke="#000000" d="M1109.5,-361.5C1138.4102,-361.5 1138.361,-339.6235 1163,-324.5 1174.3205,-317.5515 1186.5666,-310.5204 1198.538,-303.8968"/>
<polygon fill="#000000" stroke="#000000" points="1199.3983,-305.4209 1202.9338,-301.4759 1197.7099,-302.3551 1199.3983,-305.4209"/>
</g>
<!-- ThriftLandmark&#45;&gt;ThriftUncertaintyCovariance -->
<g id="edge12" class="edge">
<title>ThriftLandmark:field_uncertainty&#45;&gt;ThriftUncertaintyCovariance</title>
<path fill="none" stroke="#000000" d="M1109.5,-338.5C1125.5337,-338.5 1142.0276,-341.0121 1158.0212,-344.9425"/>
<polygon fill="#000000" stroke="#000000" points="1157.69,-346.6641 1162.9677,-346.2067 1158.5567,-343.2731 1157.69,-346.6641"/>
</g>
<!-- ThriftVertexColorMesh -->
<g id="node15" class="node">
<title>ThriftVertexColorMesh</title>
<polygon fill="#f5f5dc" stroke="#000000" points="569,-162.5 569,-254.5 749,-254.5 749,-162.5 569,-162.5"/>
<text text-anchor="middle" x="659" y="-239.3" font-family="Times,serif" font-size="14.00" fill="#000000">struct ThriftVertexColorMesh</text>
<polyline fill="none" stroke="#000000" points="569,-231.5 749,-231.5 "/>
<text text-anchor="middle" x="659" y="-216.3" font-family="Times,serif" font-size="14.00" fill="#000000">vertices :: ThriftPointList</text>
<polyline fill="none" stroke="#000000" points="569,-208.5 749,-208.5 "/>
<text text-anchor="middle" x="659" y="-193.3" font-family="Times,serif" font-size="14.00" fill="#000000">color :: ThriftVertexColorList</text>
<polyline fill="none" stroke="#000000" points="569,-185.5 749,-185.5 "/>
<text text-anchor="middle" x="659" y="-170.3" font-family="Times,serif" font-size="14.00" fill="#000000">faces :: ThriftTriangleCellList</text>
</g>
<!-- ThriftVertexColorMesh&#45;&gt;ThriftPointList -->
<g id="edge13" class="edge">
<title>ThriftVertexColorMesh:field_vertices&#45;&gt;ThriftPointList</title>
<path fill="none" stroke="#000000" d="M749,-220.5C792.8635,-220.5 840.9567,-225.6846 882.1824,-231.7432"/>
<polygon fill="#000000" stroke="#000000" points="881.972,-233.4811 887.1752,-232.4861 882.4872,-230.0192 881.972,-233.4811"/>
</g>
<!-- ThriftVertexColorMesh&#45;&gt;ThriftVertexColorList -->
<g id="edge14" class="edge">
<title>ThriftVertexColorMesh:field_color&#45;&gt;ThriftVertexColorList</title>
<path fill="none" stroke="#000000" d="M749,-196.5C791.1839,-196.5 837.3016,-191.8598 877.4563,-186.2916"/>
<polygon fill="#000000" stroke="#000000" points="878.1203,-187.9656 882.8279,-185.5363 877.6329,-184.4996 878.1203,-187.9656"/>
</g>
<!-- ThriftVertexColorMesh&#45;&gt;ThriftTriangleCellList -->
<g id="edge15" class="edge">
<title>ThriftVertexColorMesh:field_faces&#45;&gt;ThriftTriangleCellList</title>
<path fill="none" stroke="#000000" d="M749,-173.5C753.8552,-173.5 865.4839,-130.6004 933.2854,-104.3695"/>
<polygon fill="#000000" stroke="#000000" points="934.0579,-105.9471 938.0893,-102.5105 932.7947,-102.683 934.0579,-105.9471"/>
</g>
<!-- CaptureResult -->
<g id="node16" class="node">
<title>CaptureResult</title>
<polygon fill="#f5f5dc" stroke="#000000" points="249,-355 249,-470 476,-470 476,-355 249,-355"/>
<text text-anchor="middle" x="362.5" y="-454.8" font-family="Times,serif" font-size="14.00" fill="#000000">struct CaptureResult</text>
<polyline fill="none" stroke="#000000" points="249,-447 476,-447 "/>
<text text-anchor="middle" x="362.5" y="-431.8" font-family="Times,serif" font-size="14.00" fill="#000000">image :: ThriftImage</text>
<polyline fill="none" stroke="#000000" points="249,-424 476,-424 "/>
<text text-anchor="middle" x="362.5" y="-408.8" font-family="Times,serif" font-size="14.00" fill="#000000">landmarks2d :: ThriftLandmark2DList</text>
<polyline fill="none" stroke="#000000" points="249,-401 476,-401 "/>
<text text-anchor="middle" x="362.5" y="-385.8" font-family="Times,serif" font-size="14.00" fill="#000000">landmarks :: ThriftLandmarkList</text>
<polyline fill="none" stroke="#000000" points="249,-378 476,-378 "/>
<text text-anchor="middle" x="362.5" y="-362.8" font-family="Times,serif" font-size="14.00" fill="#000000">mesh :: ThriftVertexColorMesh</text>
</g>
<!-- CaptureResult&#45;&gt;ThriftLandmark2DList -->
<g id="edge17" class="edge">
<title>CaptureResult:field_landmarks2d&#45;&gt;ThriftLandmark2DList</title>
<path fill="none" stroke="#000000" d="M476,-412.5C486.0036,-412.5 496.3032,-412.7402 506.676,-413.1618"/>
<polygon fill="#000000" stroke="#000000" points="506.7018,-414.9144 511.7731,-413.383 506.8537,-411.4177 506.7018,-414.9144"/>
</g>
<!-- CaptureResult&#45;&gt;ThriftLandmarkList -->
<g id="edge18" class="edge">
<title>CaptureResult:field_landmarks&#45;&gt;ThriftLandmarkList</title>
<path fill="none" stroke="#000000" d="M476,-389.5C491.1861,-389.5 507.0542,-388.9464 522.8252,-388.0452"/>
<polygon fill="#000000" stroke="#000000" points="523.2819,-389.7712 528.1688,-387.7266 523.0734,-386.2774 523.2819,-389.7712"/>
</g>
<!-- CaptureResult&#45;&gt;ThriftImage -->
<g id="edge16" class="edge">
<title>CaptureResult:field_image&#45;&gt;ThriftImage</title>
<path fill="none" stroke="#000000" d="M476,-435.5C494.5233,-435.5 495.2652,-448.5591 512,-456.5 538.8834,-469.2565 569.5802,-481.1379 595.9452,-490.5696"/>
<polygon fill="#000000" stroke="#000000" points="595.5184,-492.2751 600.8158,-492.3018 596.6913,-488.9775 595.5184,-492.2751"/>
</g>
<!-- CaptureResult&#45;&gt;ThriftVertexColorMesh -->
<g id="edge19" class="edge">
<title>CaptureResult:field_mesh&#45;&gt;ThriftVertexColorMesh</title>
<path fill="none" stroke="#000000" d="M476,-366.5C492.8235,-366.5 560.3487,-304.5316 608.4721,-258.2118"/>
<polygon fill="#000000" stroke="#000000" points="609.8076,-259.3551 612.1925,-254.6249 607.3783,-256.8355 609.8076,-259.3551"/>
</g>
<!-- ThriftServerError -->
<g id="node17" class="node">
<title>ThriftServerError</title>
<polygon fill="#ffb6c1" stroke="#000000" points="278.5,-267 278.5,-336 446.5,-336 446.5,-267 278.5,-267"/>
<text text-anchor="middle" x="362.5" y="-320.8" font-family="Times,serif" font-size="14.00" fill="#000000">exception ThriftServerError</text>
<polyline fill="none" stroke="#000000" points="278.5,-313 446.5,-313 "/>
<text text-anchor="middle" x="362.5" y="-297.8" font-family="Times,serif" font-size="14.00" fill="#000000">message :: string</text>
<polyline fill="none" stroke="#000000" points="278.5,-290 446.5,-290 "/>
<text text-anchor="middle" x="362.5" y="-274.8" font-family="Times,serif" font-size="14.00" fill="#000000">stackTrace :: string</text>
</g>
<!-- function_RealSenseServicecapture -->
<g id="node18" class="node">
<title>function_RealSenseServicecapture</title>
<polygon fill="#ffe4c4" stroke="#000000" points="16,-338.5 16,-374.5 213,-374.5 213,-338.5 16,-338.5"/>
<text text-anchor="middle" x="114.5" y="-352.8" font-family="Times,serif" font-size="14.00" fill="#000000">function capture :: CaptureResult</text>
</g>
<!-- function_RealSenseServicecapture&#45;&gt;CaptureResult -->
<g id="edge20" class="edge">
<title>function_RealSenseServicecapture:return_type&#45;&gt;CaptureResult</title>
<path fill="none" stroke="#000000" d="M213.3926,-374.5857C223.2757,-376.7453 233.4922,-379.094 243.7281,-381.529"/>
<polygon fill="#000000" stroke="#000000" points="243.4833,-383.2697 248.7532,-382.7308 244.2974,-379.8657 243.4833,-383.2697"/>
</g>
<!-- function_RealSenseServicecapture&#45;&gt;ThriftServerError -->
<g id="edge21" class="edge">
<title>function_RealSenseServicecapture&#45;&gt;ThriftServerError</title>
<path fill="none" stroke="#ff0000" d="M195.7045,-338.4909C220.4699,-332.9986 247.8311,-326.9306 273.107,-321.3251"/>
<polygon fill="#ff0000" stroke="#ff0000" points="273.6305,-323.0016 278.133,-320.2104 272.8726,-319.5846 273.6305,-323.0016"/>
</g>
</g>
</svg>
